<?xml version="1.0" standalone="no"?>
<svg version="1.0" xmlns="http://www.w3.org/2000/svg"
     width="1024.000000pt" height="1024.000000pt" viewBox="0 0 1024.000000 1024.000000"
     preserveAspectRatio="xMidYMid meet">

    <g transform="translate(0.000000,1024.000000) scale(0.100000,-0.100000)"
       fill="#000000" stroke="none">
        <path d="M4764 7806 c-3 -7 -4 -147 -2 -310 3 -290 3 -297 -17 -301 -363 -76
-616 -183 -852 -361 l-85 -64 -71 63 c-40 35 -96 82 -125 106 l-53 44 23 16
c13 8 57 43 98 76 219 177 567 339 858 401 l82 17 0 129 0 129 -37 -6 c-162
-28 -403 -100 -563 -169 -288 -125 -518 -283 -750 -515 -302 -303 -532 -683
-669 -1104 -37 -114 -91 -320 -91 -347 0 -6 50 -10 133 -10 l133 0 17 93 c25
131 98 340 172 493 68 138 212 362 293 455 l48 57 65 -62 c35 -34 85 -80 112
-102 l48 -40 -47 -59 c-189 -242 -332 -543 -390 -823 -23 -112 -30 -131 -48
-136 -12 -3 -145 -6 -297 -6 l-277 0 -7 -126 c-7 -120 -2 -358 12 -506 l6 -68
292 0 292 0 7 -42 c19 -118 96 -329 181 -498 44 -87 144 -238 216 -327 33 -39
59 -76 59 -82 0 -12 -208 -231 -219 -231 -12 1 -186 232 -244 323 -121 191
-242 469 -282 650 -13 61 -21 77 -32 73 -8 -3 -65 -6 -128 -6 l-113 0 24 -102
c76 -320 201 -616 363 -859 122 -183 203 -282 350 -429 272 -270 579 -460 941
-581 124 -41 385 -109 421 -109 15 0 12 260 -3 264 -7 2 -67 16 -133 31 -283
65 -547 187 -799 368 l-99 71 24 19 c13 10 51 44 84 75 34 32 74 69 91 85 l30
27 84 -56 c220 -147 521 -261 780 -296 l90 -12 0 -292 c0 -186 4 -295 10 -299
6 -3 80 -11 165 -18 149 -10 447 0 513 19 l22 6 0 288 c0 324 -8 292 80 305
237 34 586 176 774 314 l80 58 118 -105 c65 -58 118 -107 118 -108 0 -10 -181
-141 -260 -190 -224 -136 -425 -213 -752 -288 l-28 -6 0 -130 c0 -130 0 -130
23 -125 12 3 74 17 137 30 211 46 393 111 591 210 530 267 1027 833 1243 1417
30 81 116 385 116 411 0 4 -58 7 -130 7 -129 0 -130 0 -130 -23 0 -38 -56
-227 -100 -336 -70 -177 -151 -326 -253 -466 -83 -113 -160 -205 -173 -205 -7
0 -60 52 -119 115 l-107 115 55 67 c175 216 347 554 403 796 l18 77 282 0 282
0 6 33 c4 17 9 175 13 349 l5 318 -298 2 -298 3 -22 105 c-60 287 -206 595
-393 829 -28 35 -50 67 -49 71 5 11 222 210 230 210 12 0 117 -132 183 -230
153 -228 273 -512 321 -764 l19 -96 133 0 c99 0 132 3 132 13 0 32 -56 235
-104 381 -90 269 -186 468 -331 686 -347 522 -855 874 -1495 1034 -78 20 -153
36 -166 36 l-24 0 0 -130 c0 -125 1 -130 21 -130 65 0 379 -98 542 -170 164
-71 378 -204 489 -303 l37 -34 -121 -107 -120 -107 -37 28 c-197 152 -492 288
-783 363 -82 20 -151 39 -153 41 -2 2 -6 141 -9 309 l-6 305 -345 3 c-286 2
-346 0 -351 -12z m436 -913 c83 -151 255 -390 380 -528 127 -140 192 -227 236
-320 56 -116 74 -185 80 -315 15 -279 -106 -487 -371 -641 -179 -103 -280
-221 -352 -409 l-32 -85 0 50 c0 93 18 300 30 340 7 25 28 56 55 81 l44 42
-31 83 c-39 106 -73 252 -93 399 -22 154 -27 183 -31 178 -2 -2 -17 -87 -34
-188 -30 -177 -68 -325 -112 -427 l-20 -47 40 -33 c45 -38 66 -86 81 -186 12
-77 12 -273 0 -260 -4 4 -15 31 -24 59 -9 29 -34 79 -54 113 -83 137 -150 202
-292 282 -101 56 -189 129 -240 197 -95 128 -124 226 -124 412 0 161 16 235
78 365 47 98 103 177 236 330 215 247 404 537 442 678 l12 46 27 -69 c14 -37
45 -103 69 -147z m-1234 -1684 c457 -63 890 -429 1052 -889 45 -128 66 -233
58 -292 -12 -91 -37 -118 -108 -118 l-27 0 25 48 c31 56 28 105 -11 190 -59
128 -163 238 -305 323 -79 46 -491 239 -630 293 -100 40 -329 106 -364 106
-12 0 38 -31 111 -69 146 -75 250 -147 363 -248 127 -114 164 -142 272 -199
128 -69 180 -112 218 -177 91 -159 -23 -290 -265 -304 -238 -14 -491 100 -657
295 -82 96 -132 190 -192 359 -66 186 -95 240 -173 324 -78 83 -153 120 -246
121 -34 1 -73 -2 -87 -6 l-25 -7 25 20 c50 40 307 161 395 186 181 51 401 68
571 44z m2719 -18 c177 -37 314 -87 472 -173 l82 -44 -65 -1 c-90 -1 -172 -42
-250 -126 -72 -77 -111 -147 -165 -303 -23 -65 -54 -147 -69 -180 -84 -187
-257 -354 -448 -433 -112 -46 -167 -56 -312 -56 -116 1 -143 4 -191 23 -101
40 -158 122 -143 203 21 106 97 186 249 259 84 40 121 67 225 160 147 131 307
241 443 305 53 25 97 47 97 49 0 7 -119 -16 -205 -39 -137 -37 -307 -107 -607
-248 -294 -139 -437 -254 -518 -419 -55 -112 -62 -168 -26 -220 l25 -38 -32 0
c-82 0 -111 79 -83 229 48 265 189 523 393 723 200 194 391 300 618 343 114
21 377 14 510 -14z m-949 -1365 c60 -8 161 -18 224 -22 200 -13 84 -22 -377
-29 -423 -7 -1400 2 -1389 13 3 3 90 15 193 27 170 21 237 23 714 24 402 1
551 -2 635 -13z"/>
    </g>
</svg>
